<svg id="Layer_1" data-name="Layer 1" xmlns="http://www.w3.org/2000/svg" viewBox="0 0 45.555 56.168">
  <path id="logoMark" d="M29.766,24.252,44.18,1.0179,44.813,0H39.612L27.121,20.134l-1.995-3.106L35.642,0H30.44L22.473,12.899,14.565.5859,14.392.32H0L15.423,24.314,0,48.861H5.203L18.078,28.442l1.978,3.08L5.399,55.15l-.633,1.018H9.967l12.737-20.53,8.308,12.927.171.2671H45.555Zm-4.498,7.2509h0L21.845,26.178l-1.209-1.88L8.469,5.371h3.946L22.567,21.173l1.988,3.097,2.646,4.1179L37.09,43.782H33.163Z"/>
</svg>
