<svg xmlns="http://www.w3.org/2000/svg" width="387.982" height="55.985" viewBox="0 0 387.982 55.985">
  <g id="Group_2" data-name="Group 2" transform="translate(-88.392 -225.582)">
    <path id="Path_2" data-name="Path 2" d="M119.226,273.475h0c-.159-1.073-.348-2.162-.532-3.222-.222-1.277-.452-2.6-.626-3.912l-.22-1.606c-.346-2.525-.7-5.136-.794-7.674-.131-3.758-.085-7.79.14-12.329.1-2.123.345-4.3.584-6.451.137-1.218.289-2.6.411-3.964a43.923,43.923,0,0,0,.153-4.481,3.8,3.8,0,0,0-1.716-3.351l-.474-.318-.591.033c-2.778.155-4.215.7-4.353,3.254-.023.435-.039.872-.055,1.308l-.006.146c-.026.7-.055,1.486-.116,2.258-.125,1.583-.267,3.166-.418,4.83-.264,2.927-.535,5.955-.692,8.974a100.951,100.951,0,0,0,.327,17.333,72.44,72.44,0,0,1-6.338-10.162c-.631-1.147-1.282-2.332-1.949-3.491-.241-.419-.572-.979-.958-1.629-3.985-6.734-4.623-8.395-4.653-8.732a3.739,3.739,0,0,0-1.815-3.647L94,236.275l-.664.078c-2.8.331-4.067.9-4.18,3.376-.016.361-.039,1.638-.059,2.963-.015.957-.029,1.852-.04,2.169-.061,1.824-.109,3.648-.156,5.472l-.021.753q-.059,2.285-.127,4.571c-.039,1.248-.09,2.5-.145,3.821-.077,1.863-.174,4.182-.207,6.39-.039,2.716.008,5.569.143,8.478a26.943,26.943,0,0,0,.431,3.332l.023.137c.058.332.114.664.167,1a3.981,3.981,0,0,0,.462,1.332,2.869,2.869,0,0,0,2.713,1.453c.186,0,.383-.01.6-.027.448-.038.9-.084,1.4-.136l2.158-.22.035-1.7a6.806,6.806,0,0,0-.146-2.027c-.031-.159-.062-.319-.083-.476-.065-.46-.116-.939-.158-1.42-.022-.264-.032-.526-.042-.794l-.034-.748c-.023-.387-.043-.775-.077-1.156-.016-.2-.037-.392-.065-.649-.026-.227-.052-.453-.067-.677-.019-.288-.024-.577-.03-.875l-.028-.934c-.008-.277-.019-.553-.024-.83-.01-.494-.015-.989-.018-1.476v-.522c0-.283,0-.566,0-.858-.006-.209-.017-.417-.031-.669-.01-.215-.023-.431-.023-.647,0-.251.013-.5.025-.767.01-.182.02-.363.024-.542q.011-.435.018-.866l.068-3.338c.011-.441.025-.883.045-1.326.01-.239.023-.478.037-.723l.043-.871c.017-.373.034-.748.046-1.12,0-.129,0-.259.006-.463.543.993,1.083,2,1.589,2.993a66.051,66.051,0,0,0,11.142,15.926c.8.84,1.58,1.688,2.357,2.537.837.915,1.786,1.952,2.743,2.94,1.532,1.585,2.609,1.716,4.878,1.281,2.2-.42,2.434-1.815,2.43-2.395a4.333,4.333,0,0,0-1.451-3.611,1.355,1.355,0,0,1-.475-.945" transform="translate(0 -0.036)"/>
    <path id="Path_3" data-name="Path 3" d="M259.874,255.03a8.1,8.1,0,0,0-3.454,1.549c-2.468,2.037-.421.284-2.869,2.334l-.84.7q-2.137,1.791-4.284,3.581c-.467.389-.885.8-1.291,1.2a36.409,36.409,0,0,1-4.493,3.259c-.3-.682-.673-1.54-.949-2.209-1.015-2.447-3.366-23.606-3.516-28.936-.068-2.391-.133-3.687-.173-4.462a11.054,11.054,0,0,1-.019-1.643c.118-1.555.078-4.238-1.591-4.756l-.334-.068-.275.059a13.244,13.244,0,0,0-5.861,3.657l-.159.3a13.874,13.874,0,0,0-.033,5.536c.12.882.346,2.474.6,4.255l.123.871c-3.925,2.766-12.682,6.6-15.344,7.736l-.1.042c-.17.072-.352.151-.55.239l-.223-.9a15.335,15.335,0,0,1-.672-4c11.034-3.879,13.516-6.859,13.927-10.4l.161-1.409-.509.094a1.237,1.237,0,0,0-.708-.839l-.511-.2-.57.22c-.329.126-1.922.879-5.487,2.571l-.181.086c-3.494,1.658-7.843,3.722-11.895,5.6-.074.024-.147.051-.223.082s-.172.071-.265.1a6.591,6.591,0,0,0-3.339,2.332l-.277.4.16.445a45.316,45.316,0,0,1,1.459,8.27l-1.961.593c-5.846,1.835-11.186,3.508-17.064,5.347l-.023.006.976-1.141c.842-.992,1.8-2.117,2.766-3.188a72.965,72.965,0,0,0,8.264-11.109c1.095-1.8,1.359-3.217.854-4.606l-.345-.952-1.1.27c-2.755.683-4.054,1.306-5.15,2.469a15.715,15.715,0,0,0-1.563,2.067c-.233.346-.463.692-.714,1.033l-.913,1.243c-1.536,2.093-3.276,4.464-5.006,6.726-.076.089-.406.4-.95.9l-.012-1.848c-.134-3.947-.288-8.413-.4-12.761,0-.148.006-.3.013-.446A2.109,2.109,0,0,0,182,233.1l-.41-.261-.5.081a10.2,10.2,0,0,0-4.794,2.031,3.718,3.718,0,0,0-1.672,2.37c-.111,2.66-1.278,5.24-2.408,7.736l-.143.313c-.667,1.475-1.344,3.187-2.065,5.012-2.114,5.352-4.51,11.419-7.775,14.417a22.449,22.449,0,0,1-2.648,2.183,3.886,3.886,0,0,1-4.764-.01c-1.148-.793-2.228-1.685-2.359-2.832l-.081-.675a28.963,28.963,0,0,1-.285-3.708,62.654,62.654,0,0,1,3.437-17.253,14.189,14.189,0,0,1,2.948-4.543,1.717,1.717,0,0,1,.2.633c-.086,1.671-.189,3.448-.431,5.2a1.563,1.563,0,0,0,1.316,2,5.544,5.544,0,0,0,4.276-.464,2.48,2.48,0,0,0,1.2-2.1,50.984,50.984,0,0,0-.329-7.119,9.493,9.493,0,0,0-1.711-3.9c-1.058-1.564-2.377-1.853-4.7-1.036a14.04,14.04,0,0,0-6.662,4.608,37.546,37.546,0,0,0-5.336,9.991c-2.006,5.357-2.906,15.461-2.338,20.577a8.934,8.934,0,0,0,3.2,6.111,9.932,9.932,0,0,0,7.067,2.222,15.271,15.271,0,0,0,10.125-3.849c3.941-3.5,6.782-10.437,8.662-15.033l.032-.079c.289-.705.551-1.343.784-1.887.034-.078.064-.158.09-.23l.035-.092a1.634,1.634,0,0,1,.827-1.09,1.134,1.134,0,0,1,.126.337l.337,3.614c.313,3.343.637,6.8.879,10.234.152,2.133.2,4.371.245,6.347l0,.145q.024,1.207.057,2.416a2.955,2.955,0,0,0,.985,2.541,2.747,2.747,0,0,0,1.55.38,12.5,12.5,0,0,0,2.611-.384c1.337-.3,2.1-.848,2.394-1.709l.085-.245a7.3,7.3,0,0,0,.474-1.929c.036-.629.078-1.258.123-1.9a47.042,47.042,0,0,0,.141-6.542c-.107-1.5.362-2.483,3.142-3.375,3.838-1.231,7.645-2.553,11.384-3.851l2.036-.713c.964-.339,1.887-.662,3.013-1.046a4.73,4.73,0,0,1,.887-.152c.181-.022.378-.046.626-.087l.626-.176c.193.8.375,1.593.559,2.395.425,1.836.825,3.569,1.3,5.335.205.758.361,1.364.5,1.923a31.993,31.993,0,0,0,1.077,3.578c.722,1.969,2.164,2.389,4.747,2.507a6.507,6.507,0,0,0,6.261-2.978,39.3,39.3,0,0,1,2.84-3.305,26.3,26.3,0,0,1,2.943-2.536c1.926-1.513,3.591-2.82,3.953-4.188l.023-.081a2.529,2.529,0,0,0-.424-2.724l-.329-.256-.365-.039a3.921,3.921,0,0,0-3.459,1.331,88.916,88.916,0,0,1-8.278,5.2c-.108-.343-.208-.677-.3-1.006-.062-.205-.172-.594-.311-1.084l-.095-.332c-.692-2.442-1.336-4.685-1.588-5.312-.324-.8-.324-.8.728-1.5l.367-.246c2.258-1.552,5.868-3.561,8.518-5.036l1.149-.641c.332-.186,1.113-.569,1.94-.975.884-.433,1.913-.94,2.847-1.423.359,2.583.429,3.163.435,3.251.026,2.2.171,7.235.329,12.635l.068,2.276c.026.876.043,1.481.061,2.188a15.091,15.091,0,0,0,2.2,6.686l.147.217c1.085,1.59,2.314,3.392,5.74,3.465l.22,0a10.367,10.367,0,0,0,6.478-2.447l1.509-1.41c2.271-2.123,4.62-4.319,6.8-6.548q.749-.764,1.5-1.523l.138-.139a23.343,23.343,0,0,0,4.357-4.995,8.473,8.473,0,0,0,1.013-2.5,2.049,2.049,0,0,0-2.233-1.066" transform="translate(-3.436 0)"/>
    <path id="Path_4" data-name="Path 4" d="M135.973,254.25v-.013a119.516,119.516,0,0,1,.076-13.689,17.684,17.684,0,0,0-.1-3.59c-.249-2.063-1.215-2.8-1.981-3.055-1.082-.363-2.322,0-3.677,1.082a4.857,4.857,0,0,0-1.843,3.334c-.068.583-.09,1.163-.113,1.75l-.011.308c-.291,7.3-.032,14.7.217,21.851l0,.1c.121,3.454.247,7.026.306,10.535.029,1.678.144,3.125,1.254,3.848a2.893,2.893,0,0,0,1.621.421,12.328,12.328,0,0,0,2.776-.467l.619-.157.184-.542c.064-.189.135-.371.221-.6a7.828,7.828,0,0,0,.455-1.481,18.656,18.656,0,0,0,.325-3.272c-.036-4.109-.111-8.421-.222-12.817-.029-1.183-.068-2.366-.106-3.548" transform="translate(-2.468 -0.508)"/>
    <path id="Path_5" data-name="Path 5" d="M300.113,272.211H275.481v-45.25h24.158c7.315,0,11.344,3.862,11.344,10.874v5.316a9.384,9.384,0,0,1-1.749,5.752,9.024,9.024,0,0,1,2.225,6.223v6.211c0,7.012-4.029,10.874-11.345,10.874m-20.644-3.988h20.644c5.088,0,7.357-2.124,7.357-6.886v-6.211a4.832,4.832,0,0,0-2.223-4.41l-2.371-1.521,2.223-1.73a5.027,5.027,0,0,0,1.9-4.313v-5.316c0-4.762-2.269-6.887-7.357-6.887H279.469Zm19.636-4.2H284.692V251.1h14.413c2.115,0,3.143.988,3.143,3.018V261c0,2.031-1.028,3.018-3.143,3.018m-10.426-3.987h9.581v-4.944h-9.581Zm9.952-12.855H284.692V235.152h13.939c2.114,0,3.142.988,3.142,3.019V244.1c0,2.1-1,3.075-3.142,3.075m-9.952-3.987h9.107v-4.049h-9.107Z" transform="translate(-11.603 -0.086)"/>
    <path id="Path_6" data-name="Path 6" d="M359.214,272.211H344.645l-7.651-14.6h-3.545v14.6h-13.2v-45.25h24.335c7.315,0,11.344,3.862,11.344,10.874v8.729c0,5.527-2.427,8.261-5.1,9.6Zm-12.156-3.988h5.573l-7.564-14.492,2.477-.6c1.889-.457,4.4-1.636,4.4-6.567v-8.729c0-4.762-2.269-6.887-7.357-6.887H324.24v37.275h5.221v-14.6h9.946Zm-3.479-18.7H329.461V235.152h14.118c2.115,0,3.143.988,3.143,3.019v8.28c0,2.1-1,3.075-3.143,3.075m-10.129-3.987h9.284v-6.4h-9.284Z" transform="translate(-14.379 -0.086)"/>
    <path id="Path_7" data-name="Path 7" d="M448.549,272.21h-11.7L423.28,250.94V272.21H410.321V226.961H422.5l13.092,20.5v-20.5h12.959Zm-9.519-3.987h5.531V230.948h-4.984v30.166l-19.264-30.166h-6.006v37.275h4.984V237.27Z" transform="translate(-19.965 -0.086)"/>
    <path id="Path_8" data-name="Path 8" d="M484.391,249.209l13.52-21.794.594-.955h-4.878L481.91,245.345l-1.871-2.913L489.9,226.46h-4.879l-7.472,12.1-7.419-11.549-.162-.25h-13.5l14.466,22.506-14.466,23.025h4.88l12.077-19.153,1.855,2.889L461.535,278.19l-.594.955h4.879l11.946-19.257,7.793,12.125.16.25H499.2Zm-4.219,6.8h0l-3.211-4.995-1.134-1.763L464.415,231.5h3.7l9.522,14.822,1.865,2.9,2.483,3.863,9.275,14.439h-3.683Z" transform="translate(-22.827 -0.054)"/>
    <path id="Path_9" data-name="Path 9" d="M389.825,226.961H375.886c-6.847,0-10.935,4.025-10.935,10.767v23.714c0,6.742,4.088,10.768,10.935,10.768h13.939c6.9,0,11.185-4.125,11.185-10.768V237.728c0-6.642-4.286-10.767-11.185-10.767m7.242,34.481c0,5.642-3.938,6.826-7.242,6.826H375.886c-4.7,0-6.992-2.233-6.992-6.826V237.728c0-4.591,2.287-6.825,6.992-6.825h13.939c3.3,0,7.242,1.185,7.242,6.825Z" transform="translate(-17.151 -0.086)"/>
    <path id="Path_10" data-name="Path 10" d="M389.494,235.483H377.432c-2.117,0-3.146,1.036-3.146,3.169v22.923c0,2.132,1.029,3.169,3.146,3.169h12.062c.764,0,3.09,0,3.09-3.169V238.652c0-3.169-2.326-3.169-3.09-3.169m-.853,25.319H378.229V239.425h10.412Z" transform="translate(-17.73 -0.614)"/>
  </g>
</svg>
